<svg width="18" height="19" viewBox="0 0 18 19" fill="none" xmlns="http://www.w3.org/2000/svg">
<path d="M12.3421 10.1739C13.2288 9.4415 13.876 8.43723 14.1937 7.30076C14.5114 6.16428 14.4837 4.95212 14.1146 3.83291C13.7455 2.71369 13.0532 1.74309 12.1341 1.05613C11.215 0.369161 10.1148 0 8.98659 0C7.85834 0 6.75814 0.369161 5.83906 1.05613C4.91997 1.74309 4.22771 2.71369 3.85858 3.83291C3.48945 4.95212 3.4618 6.16428 3.77948 7.30076C4.09717 8.43723 4.74439 9.4415 5.6311 10.1739C4.1117 10.8129 2.78598 11.8728 1.79525 13.2405C0.80453 14.6083 0.185949 16.2326 0.00545546 17.9404C-0.0076096 18.0651 0.00284753 18.1912 0.0362296 18.3117C0.0696116 18.4321 0.125265 18.5445 0.200012 18.6423C0.35097 18.84 0.570537 18.9666 0.810411 18.9943C1.05028 19.022 1.29082 18.9485 1.47909 18.79C1.66736 18.6316 1.78796 18.4011 1.81434 18.1493C2.01295 16.2933 2.85598 14.5791 4.18238 13.3344C5.50877 12.0896 7.22554 11.4015 9.00468 11.4015C10.7838 11.4015 12.5006 12.0896 13.827 13.3344C15.1534 14.5791 15.9964 16.2933 16.195 18.1493C16.2196 18.3826 16.3256 18.598 16.4927 18.7541C16.6597 18.9101 16.8759 18.9957 17.0994 18.9943H17.1989C17.436 18.9656 17.6527 18.8398 17.8018 18.6442C17.9509 18.4485 18.0203 18.199 17.9948 17.9499C17.8135 16.2373 17.1916 14.6087 16.1958 13.2389C15.2 11.869 13.8678 10.8095 12.3421 10.1739ZM8.98659 9.49974C8.27106 9.49974 7.5716 9.27701 6.97666 8.8597C6.38172 8.44239 5.91802 7.84925 5.6442 7.15529C5.37037 6.46133 5.29873 5.69772 5.43832 4.96102C5.57792 4.22431 5.92248 3.54761 6.42843 3.01648C6.93439 2.48534 7.57901 2.12364 8.28079 1.9771C8.98257 1.83056 9.70999 1.90577 10.371 2.19321C11.0321 2.48066 11.5971 2.96744 11.9947 3.59198C12.3922 4.21653 12.6044 4.9508 12.6044 5.70193C12.6044 6.70918 12.2232 7.67516 11.5447 8.38739C10.8663 9.09962 9.94608 9.49974 8.98659 9.49974Z" fill="black"/>
</svg>
