<svg width="22" height="22" viewBox="0 0 22 22" fill="none" xmlns="http://www.w3.org/2000/svg">
<g clip-path="url(#clip0_1_2)">
<path d="M17.2669 15.0417H9.37829C8.6604 15.0366 7.96508 14.7902 7.40416 14.3422C6.84324 13.8941 6.44931 13.2704 6.28571 12.5714L5.02857 7.46114C4.91291 6.98664 4.90698 6.49201 5.01124 6.01486C5.11549 5.53772 5.32718 5.09064 5.6302 4.70761C5.93323 4.32459 6.31961 4.01571 6.75996 3.80447C7.20032 3.59323 7.68304 3.48519 8.17143 3.48857H18.5429C19.0312 3.48519 19.514 3.59323 19.9543 3.80447C20.3947 4.01571 20.7811 4.32459 21.0841 4.70761C21.3871 5.09064 21.5988 5.53772 21.703 6.01486C21.8073 6.49201 21.8014 6.98664 21.6857 7.46114L20.4286 12.584C20.2588 13.2917 19.8533 13.9206 19.2787 14.3673C18.7041 14.814 17.9946 15.0518 17.2669 15.0417ZM8.13371 5.06C7.88526 5.06076 7.6402 5.11772 7.41688 5.22663C7.19357 5.33553 6.99779 5.49355 6.8442 5.68885C6.69062 5.88416 6.58322 6.11168 6.53005 6.35438C6.47687 6.59707 6.4793 6.84866 6.53714 7.09029L7.79429 12.2131C7.87943 12.5721 8.08354 12.8918 8.37343 13.12C8.66331 13.3483 9.0219 13.4717 9.39086 13.4703H17.2669C17.6358 13.4717 17.9944 13.3483 18.2843 13.12C18.5742 12.8918 18.7783 12.5721 18.8634 12.2131L20.1206 7.09029C20.1797 6.84856 20.183 6.59655 20.1304 6.35333C20.0777 6.11012 19.9704 5.88207 19.8166 5.68646C19.6627 5.49085 19.4664 5.33279 19.2425 5.22425C19.0185 5.11572 18.7729 5.05955 18.524 5.06H8.13371Z" fill="black"/>
<path d="M5.94629 8.8C5.76678 8.79788 5.59341 8.73435 5.45503 8.61999C5.31665 8.50563 5.22161 8.34732 5.18571 8.17143L4.06057 3.28743C3.95667 2.84251 3.70485 2.44603 3.34631 2.16285C2.98777 1.87967 2.54374 1.72656 2.08686 1.72857H1.06229C0.853901 1.72857 0.654052 1.64579 0.506702 1.49844C0.359352 1.35109 0.276571 1.15124 0.276571 0.942856C0.276571 0.734472 0.359352 0.534622 0.506702 0.387272C0.654052 0.239922 0.853901 0.157142 1.06229 0.157142H2.08686C2.89885 0.154305 3.6878 0.426889 4.32486 0.930369C4.96192 1.43385 5.40942 2.13847 5.59429 2.92914L6.71314 7.81314C6.73736 7.91346 6.74141 8.0176 6.72506 8.11949C6.70872 8.22139 6.6723 8.31903 6.61791 8.40675C6.56353 8.49446 6.49227 8.5705 6.40827 8.63045C6.32427 8.69041 6.2292 8.73308 6.12857 8.756C6.06951 8.77698 6.00842 8.79173 5.94629 8.8ZM9.49771 21.8429C9.00044 21.8429 8.51432 21.6954 8.10085 21.4191C7.68738 21.1428 7.36512 20.7502 7.17482 20.2907C6.98452 19.8313 6.93473 19.3258 7.03174 18.8381C7.12875 18.3503 7.36822 17.9023 7.71985 17.5507C8.07148 17.1991 8.51948 16.9596 9.0072 16.8626C9.49493 16.7656 10.0005 16.8154 10.4599 17.0057C10.9193 17.196 11.312 17.5182 11.5883 17.9317C11.8645 18.3452 12.012 18.8313 12.012 19.3286C12.012 19.9954 11.7471 20.6349 11.2756 21.1064C10.8041 21.578 10.1645 21.8429 9.49771 21.8429ZM9.49771 18.3606C9.30875 18.3606 9.12403 18.4166 8.96691 18.5216C8.80979 18.6266 8.68733 18.7758 8.61501 18.9504C8.5427 19.125 8.52378 19.3171 8.56064 19.5024C8.59751 19.6877 8.68851 19.858 8.82212 19.9916C8.95574 20.1252 9.12598 20.2162 9.31132 20.2531C9.49665 20.2899 9.68876 20.271 9.86334 20.1987C10.0379 20.1264 10.1871 20.0039 10.2921 19.8468C10.3971 19.6897 10.4531 19.505 10.4531 19.316C10.4531 19.0626 10.3525 18.8196 10.1733 18.6404C9.99413 18.4612 9.75111 18.3606 9.49771 18.3606ZM18.1846 21.8429C17.6873 21.8429 17.2012 21.6954 16.7877 21.4191C16.3742 21.1428 16.052 20.7502 15.8617 20.2907C15.6714 19.8313 15.6216 19.3258 15.7186 18.8381C15.8156 18.3503 16.0551 17.9023 16.4067 17.5507C16.7583 17.1991 17.2063 16.9596 17.6941 16.8626C18.1818 16.7656 18.6873 16.8154 19.1467 17.0057C19.6062 17.196 19.9989 17.5182 20.2751 17.9317C20.5514 18.3452 20.6989 18.8313 20.6989 19.3286C20.6989 19.9954 20.434 20.6349 19.9624 21.1064C19.4909 21.578 18.8514 21.8429 18.1846 21.8429ZM18.1846 18.3606C17.9959 18.3618 17.8118 18.4189 17.6555 18.5246C17.4992 18.6304 17.3777 18.78 17.3064 18.9547C17.235 19.1294 17.217 19.3213 17.2546 19.5062C17.2921 19.6911 17.3836 19.8608 17.5175 19.9938C17.6514 20.1268 17.8216 20.2171 18.0068 20.2535C18.1919 20.2899 18.3837 20.2706 18.5579 20.1981C18.7321 20.1256 18.881 20.0031 18.9857 19.8461C19.0904 19.6892 19.1463 19.5047 19.1463 19.316C19.1463 19.19 19.1214 19.0652 19.073 18.9489C19.0246 18.8326 18.9536 18.727 18.8642 18.6382C18.7748 18.5494 18.6688 18.4791 18.5521 18.4315C18.4355 18.3838 18.3106 18.3597 18.1846 18.3606Z" fill="black"/>
<path d="M18.1846 18.3606H7.71257C7.06408 18.3606 6.44215 18.103 5.98359 17.6444C5.52504 17.1859 5.26743 16.5639 5.26743 15.9154C5.26743 15.2669 5.52504 14.645 5.98359 14.1865C6.44215 13.7279 7.06408 13.4703 7.71257 13.4703H9.37829C9.58667 13.4703 9.78652 13.5531 9.93387 13.7004C10.0812 13.8478 10.164 14.0476 10.164 14.256C10.164 14.4644 10.0812 14.6642 9.93387 14.8116C9.78652 14.9589 9.58667 15.0417 9.37829 15.0417H7.71257C7.48085 15.0417 7.25862 15.1338 7.09476 15.2976C6.93091 15.4615 6.83886 15.6837 6.83886 15.9154C6.83886 16.1472 6.93091 16.3694 7.09476 16.5332C7.25862 16.6971 7.48085 16.7891 7.71257 16.7891H18.1846C18.393 16.7891 18.5928 16.8719 18.7402 17.0193C18.8875 17.1666 18.9703 17.3665 18.9703 17.5749C18.9703 17.7832 18.8875 17.9831 18.7402 18.1304C18.5928 18.2778 18.393 18.3606 18.1846 18.3606Z" fill="black"/>
</g>
<defs>
<clipPath id="clip0_1_2">
<rect width="22" height="22" fill="white"/>
</clipPath>
</defs>
</svg>
