<svg width="70" height="33" viewBox="0 0 70 33" fill="none" xmlns="http://www.w3.org/2000/svg">
<path d="M53.9086 19.774H60.5173C61.0021 19.774 61.4376 19.5365 61.7121 19.1225C62.0483 18.6154 62.0922 17.9115 61.8324 17.1914L61.7782 17.0411L61.6878 16.9111C61.6778 16.8966 60.672 15.4507 59.6389 14.0236C59.0276 13.179 58.5248 12.5037 58.1443 12.0165C57.4398 11.1143 57.0733 10.6806 56.4457 10.6806H53.9086C53.3198 10.6806 52.7834 11.0528 52.4736 11.6761C52.2753 12.0753 52.1705 12.5577 52.1705 13.0712V17.3832C52.1705 17.8967 52.2753 18.3792 52.4736 18.7783C52.7833 19.4018 53.3198 19.774 53.9086 19.774ZM54.4564 17.3832V13.0712C54.4564 13.0696 54.4564 13.0681 54.4564 13.0665H56.007C56.5699 13.7358 57.9141 15.5763 59.1906 17.388H54.4564C54.4564 17.3864 54.4564 17.3848 54.4564 17.3832ZM6.26114 8.38593L11.5653 8.38597C12.1965 8.38597 12.7082 7.85183 12.7082 7.193C12.7082 6.53415 12.1965 6.00004 11.5653 6.00004L6.26114 6C5.62993 6 5.11815 6.53413 5.11815 7.19296C5.11815 7.85181 5.62987 8.38593 6.26114 8.38593ZM12.7082 13.5C12.7082 12.8411 12.1965 12.307 11.5653 12.307L1.14299 12.307C0.511778 12.307 0 12.8411 0 13.4999C0 14.1588 0.511724 14.6929 1.14299 14.6929L11.5653 14.6929C12.1965 14.6929 12.7082 14.1588 12.7082 13.5ZM12.7082 19.807C12.7082 19.1482 12.1965 18.6141 11.5653 18.6141L6.26114 18.614C5.62993 18.614 5.11815 19.1482 5.11815 19.807C5.11815 20.4658 5.62988 21 6.26114 21L11.5653 21C12.1965 21 12.7082 20.4659 12.7082 19.807Z" fill="#F7CA00"/>
<path d="M24.5 31C25.3284 31 26 30.1046 26 29C26 27.8954 25.3284 27 24.5 27C23.6716 27 23 27.8954 23 29C23 30.1046 23.6716 31 24.5 31Z" fill="#F7CA00"/>
<path d="M58 31C58.5523 31 59 30.1046 59 29C59 27.8954 58.5523 27 58 27C57.4477 27 57 27.8954 57 29C57 30.1046 57.4477 31 58 31Z" fill="#F7CA00"/>
<path d="M68.941 24.5882C68.3948 24.2031 67.6949 23.9856 66.9627 23.9711V16.4163C66.9627 15.9052 66.7397 15.2524 66.4204 14.8289L60.1404 6.50237C59.7527 5.98836 59.001 5.62936 58.3124 5.62936H50.4014V1.77544C50.4014 0.796465 49.6209 0 48.6616 0H15.7772C14.8178 0 14.0373 0.796465 14.0373 1.77544V23.9711C13.3051 23.9856 12.6053 24.203 12.059 24.5882C11.386 25.0628 11 25.7565 11 26.4915V27.0015C11 27.7365 11.386 28.4302 12.0591 28.9048C12.6247 29.3037 13.355 29.5233 14.1154 29.5233H20.0178C20.5291 31.519 22.3601 33 24.5344 33C26.7087 33 28.5397 31.519 29.051 29.5233H53.4468C53.9581 31.519 55.7891 33 57.9635 33C60.1378 33 61.9688 31.519 62.4801 29.5233H66.8846C67.6451 29.5233 68.3754 29.3037 68.941 28.9048C69.614 28.4302 70 27.7365 70 27.0015V26.4915C70 25.7565 69.614 25.0628 68.941 24.5882ZM58.2947 7.89281C58.3099 7.89633 58.3316 7.9044 58.3493 7.91282L64.5839 16.1793C64.6181 16.2311 64.6662 16.3643 64.6744 16.4289V23.9697H61.4968H59.276C58.8595 23.8485 58.4191 23.7832 57.9635 23.7832C57.5079 23.7832 57.0674 23.8485 56.6509 23.9697H54.5235L50.4014 23.9626V7.89282L58.2947 7.89281ZM28.6497 26.2331H53.8482C53.6751 26.5547 53.5393 26.8988 53.4468 27.2599H29.051C28.9585 26.8988 28.8228 26.5547 28.6497 26.2331ZM16.3256 2.26346H48.1131V7.25375V23.9447H28.0492V23.9697H25.8469C25.4304 23.8485 24.99 23.7832 24.5344 23.7832C24.0788 23.7832 23.6384 23.8485 23.2219 23.9697H21.0196V23.9447H16.3256V2.26346ZM13.2883 26.9718V26.5213C13.3514 26.4265 13.6466 26.2331 14.1154 26.2331H20.4192C20.2461 26.5547 20.1103 26.8988 20.0178 27.2599H14.1154C13.6465 27.2599 13.3514 27.0665 13.2883 26.9718ZM24.5344 30.7365C23.2272 30.7365 22.1637 29.6846 22.1637 28.3916C22.1637 27.0986 23.2272 26.0466 24.5344 26.0466C24.8584 26.0466 25.1674 26.1114 25.4489 26.2283V26.2331H25.4606C26.3089 26.5906 26.9051 27.4235 26.9051 28.3916C26.9051 29.6846 25.8416 30.7365 24.5344 30.7365ZM57.9635 30.7365C56.6562 30.7365 55.5927 29.6846 55.5927 28.3916C55.5927 27.0986 56.6562 26.0466 57.9635 26.0466C59.2707 26.0466 60.3342 27.0986 60.3342 28.3916C60.3342 29.6846 59.2707 30.7365 57.9635 30.7365ZM67.7117 26.9718C67.6486 27.0665 67.3535 27.2599 66.8846 27.2599H62.4801C62.3876 26.8988 62.2518 26.5547 62.0787 26.2331H65.1921C65.2124 26.2334 65.2352 26.2336 65.2603 26.2336C65.2784 26.2336 65.2978 26.2335 65.3182 26.2331H66.8846C67.3535 26.2331 67.6486 26.4265 67.7117 26.5213L67.7117 26.9718Z" fill="#F7CA00"/>
</svg>
