<svg width="44" height="44" viewBox="0 0 44 44" fill="none" xmlns="http://www.w3.org/2000/svg">
<g clip-path="url(#clip0_103_2)">
<path d="M0.0272215 18.6458L4.01713 6.67667C4.0717 6.51306 4.20327 6.38619 4.3685 6.33815L25.7237 0.0798733C25.8672 0.0364317 26.0254 0.0587758 26.1513 0.138467L42.032 10.074C42.164 10.1566 42.2525 10.2932 42.2738 10.4479L43.9949 22.8082C44.0283 23.048 43.8949 23.2789 43.6705 23.369L40.3386 24.7113L40.3378 33.324C40.3378 33.529 40.2176 33.7166 40.0317 33.8024L18.4788 43.7047L18.4779 43.7062C18.4596 43.7366 18.4395 43.7716 18.4076 43.8005C18.3101 43.8913 18.1825 43.942 18.0492 43.942C17.9033 43.942 17.7628 43.8807 17.6635 43.7737L4.20836 29.3019C4.11754 29.2042 4.06729 29.0767 4.06729 28.9434V23.2173L0.148053 19.1791C0.0111116 19.0377 -0.0350161 18.8331 0.0272215 18.6458ZM40.7048 10.4856L25.979 1.27322V15.066L40.7048 10.4856ZM20.7497 32.5999C20.6039 32.6576 20.4356 32.6477 20.2986 32.5717C20.159 32.4952 20.0632 32.3613 20.0345 32.2042L18.6305 24.4148V42.4757L39.2844 32.9862L39.2853 25.135L20.7497 32.5999ZM18.6462 18.5628L20.9565 31.3811L42.8949 22.545L41.3423 11.3904L18.6167 18.4592C18.6296 18.4928 18.64 18.527 18.6462 18.5628ZM5.86163 6.99802L18.0935 17.5188L24.9253 15.394V1.41131L5.86163 6.99802ZM1.12784 18.6756L13.2177 31.1324L17.6231 18.5038L4.84742 7.51587L1.12784 18.6756ZM17.5774 21.8324L13.9316 32.2843C13.872 32.4557 13.7248 32.5864 13.548 32.6254C13.3752 32.6634 13.182 32.6071 13.0562 32.4777L5.12082 24.3017V28.7361L17.5774 42.1343V21.8324Z" fill="#F7CA00"/>
</g>
<defs>
<clipPath id="clip0_103_2">
<rect width="44" height="44" fill="white" transform="matrix(-1 0 0 1 44 0)"/>
</clipPath>
</defs>
</svg>
