<svg width="20" height="19" viewBox="0 0 20 19" fill="none" xmlns="http://www.w3.org/2000/svg">
<path d="M10.9788 0.622702L13.2088 5.09373C13.3697 5.41899 13.6834 5.64533 14.0473 5.69864L19.0425 6.42628C19.3362 6.46747 19.6011 6.62197 19.7785 6.8556C19.956 7.08923 20.0314 7.38273 19.988 7.67115C19.9535 7.91021 19.8408 8.13174 19.6669 8.30236L16.0454 11.809C15.7802 12.057 15.6595 12.4193 15.7243 12.7734L16.6163 17.7091C16.7148 18.2995 16.3209 18.8609 15.7243 18.9802C15.4801 19.0186 15.2299 18.9786 15.0107 18.8663L10.5507 16.5431C10.2204 16.3761 9.8284 16.3761 9.49811 16.5431L5.0381 18.8663C4.48873 19.1584 3.80239 18.9584 3.50386 18.4192C3.39075 18.2033 3.35015 17.9578 3.3879 17.7178L4.2799 12.7822C4.34469 12.4281 4.22403 12.0657 3.95878 11.8178L0.337258 8.31112C0.124797 8.10519 0.00518799 7.82416 0.00518799 7.53088C0.00518799 7.23761 0.124797 6.95658 0.337258 6.75065C0.508415 6.57649 0.735044 6.46512 0.979499 6.43504L5.97471 5.7074C6.33863 5.65409 6.65237 5.42775 6.81319 5.1025L8.96291 0.622702C9.1509 0.240577 9.548 0.000936396 9.97979 0.00903079H10.1136C10.4893 0.0558782 10.8152 0.28699 10.9788 0.622702Z" fill="#F7CA00"/>
<path d="M10.0065 16.4116C9.81119 16.4103 9.62747 16.4746 9.45366 16.5623L5.00774 18.8798C4.4745 19.1485 3.79741 18.9326 3.50386 18.4192C3.39024 18.2066 3.34957 17.9637 3.3879 17.7266L4.2799 12.7997C4.3398 12.4433 4.22009 12.0806 3.95878 11.8266L0.328338 8.31989C-0.109446 7.88871 -0.109446 7.1906 0.328338 6.75941C0.499576 6.59022 0.721594 6.47959 0.961659 6.44381L5.97471 5.7074C6.36102 5.65134 6.63712 5.43774 6.81319 5.1025L8.99095 0.571356C9.15691 0.202754 9.71489 -0.0519721 10.0155 0.00903094C10.0066 0.3071 10.0065 16.2099 10.0065 16.4116Z" fill="#F7CA00"/>
</svg>
