<svg width="20" height="20" viewBox="0 0 20 20" fill="none" xmlns="http://www.w3.org/2000/svg">
<path d="M19.8485 7.62554C19.9288 7.07872 19.5505 6.57042 19.0038 6.49016L13.3524 5.66399L10.827 0.517505C10.7361 0.360523 10.6056 0.230152 10.4485 0.139393C9.95244 -0.14729 9.31785 0.0223881 9.03111 0.518482L6.5067 5.66399L0.855329 6.49022C0.639265 6.5219 0.439558 6.62346 0.286543 6.77928C-0.100603 7.17363 -0.0946831 7.80718 0.299665 8.19432L4.39244 12.207L3.42662 17.8711C3.41746 17.9253 3.41276 17.9802 3.41264 18.0352C3.41112 18.5886 3.8585 19.0385 4.41197 19.04C4.57512 19.0398 4.73576 18.9996 4.87974 18.9228L9.92955 16.2529L14.9784 18.9219C15.1735 19.0254 15.3974 19.0615 15.6152 19.0244C16.1593 18.9316 16.5253 18.4153 16.4325 17.8711L15.4667 12.207L19.5604 8.19329C19.7157 8.04045 19.8168 7.84111 19.8485 7.62554ZM14.5799 11.6757C14.4629 11.7906 14.4093 11.9554 14.4364 12.1171L15.4461 18.038L10.1629 15.245C10.0166 15.1688 9.84245 15.1688 9.69615 15.245L4.41295 18.039L5.42265 12.1172C5.44981 11.9554 5.39622 11.7906 5.2791 11.6758L0.999799 7.48046L6.91191 6.6162C7.07518 6.59178 7.21605 6.48888 7.28892 6.34081L9.92955 0.959034L12.5701 6.34075C12.643 6.48882 12.7839 6.59172 12.9471 6.61614L18.8602 7.47942L14.5799 11.6757Z" fill="#F7CA00"/>
<path d="M6.5 6.5L10 0.5V15.2056L4 18.5L5 11.5L1 7.5L6.5 6.5Z" fill="#F7CA00"/>
</svg>
