<svg width="54" height="54" viewBox="0 0 54 54" fill="none" xmlns="http://www.w3.org/2000/svg">
<path d="M17.7188 27C17.6077 27.0006 17.4976 26.9793 17.3948 26.9373C17.292 26.8954 17.1985 26.8335 17.1197 26.7553L14.1159 23.7515L12.0825 24.4265C11.9554 24.4695 11.8199 24.4815 11.6872 24.4616C11.5545 24.4416 11.4285 24.3904 11.3196 24.312C11.2107 24.2336 11.1221 24.1304 11.0611 24.0109C11.0001 23.8914 10.9684 23.7591 10.9688 23.625V17.7187C10.9693 17.5488 11.0211 17.3829 11.1174 17.2429C11.2138 17.1029 11.3502 16.9952 11.5088 16.934L29.2275 10.184C29.4367 10.1046 29.669 10.1115 29.8731 10.2033C30.0772 10.2951 30.2365 10.4642 30.3159 10.6734C30.3954 10.8826 30.3885 11.1149 30.2967 11.319C30.2049 11.5231 30.0358 11.6824 29.8266 11.7619L12.6563 18.3009V22.4522L14.0738 21.9797C14.2195 21.9338 14.375 21.9285 14.5237 21.9641C14.6723 21.9998 14.8084 22.0752 14.9175 22.1822L16.875 24.1228V20.25C16.8742 20.082 16.9235 19.9175 17.0167 19.7777C17.1099 19.6379 17.2427 19.5291 17.3981 19.4653L35.1169 12.2175C35.3239 12.1324 35.5562 12.1331 35.7627 12.2194C35.9692 12.3056 36.1329 12.4703 36.218 12.6773C36.303 12.8843 36.3023 13.1166 36.2161 13.3231C36.1299 13.5296 35.9651 13.6934 35.7581 13.7784L18.5625 20.8153V26.1562C18.5625 26.38 18.4736 26.5946 18.3154 26.7528C18.1571 26.9111 17.9425 27 17.7188 27Z" fill="#F7CA00"/>
<path d="M23.625 48.0938C23.5272 48.0936 23.4301 48.0765 23.3381 48.0431L4.77562 41.2931C4.61255 41.2342 4.47161 41.1264 4.37196 40.9845C4.27232 40.8426 4.21882 40.6734 4.21875 40.5V15.1875C4.21875 14.9637 4.30764 14.7491 4.46588 14.5909C4.62411 14.4326 4.83872 14.3438 5.0625 14.3438C5.28628 14.3438 5.50089 14.4326 5.65912 14.5909C5.81736 14.7491 5.90625 14.9637 5.90625 15.1875V39.9094L22.7812 46.0434V21.9375C22.7812 21.7137 22.8701 21.4991 23.0284 21.3409C23.1866 21.1826 23.4012 21.0938 23.625 21.0938C23.8488 21.0938 24.0634 21.1826 24.2216 21.3409C24.3799 21.4991 24.4688 21.7137 24.4688 21.9375V47.25C24.4688 47.4738 24.3799 47.6884 24.2216 47.8466C24.0634 48.0049 23.8488 48.0938 23.625 48.0938ZM42.1875 21.9375C41.9637 21.9375 41.7491 21.8486 41.5909 21.6904C41.4326 21.5321 41.3438 21.3175 41.3438 21.0938V15.1875C41.3438 14.9637 41.4326 14.7491 41.5909 14.5909C41.7491 14.4326 41.9637 14.3438 42.1875 14.3438C42.4113 14.3438 42.6259 14.4326 42.7841 14.5909C42.9424 14.7491 43.0312 14.9637 43.0312 15.1875V21.0938C43.0312 21.3175 42.9424 21.5321 42.7841 21.6904C42.6259 21.8486 42.4113 21.9375 42.1875 21.9375Z" fill="#F7CA00"/>
<path d="M23.625 48.0938C23.4266 48.0935 23.2347 48.0234 23.0829 47.8958C22.9311 47.7681 22.8291 47.591 22.7949 47.3957C22.7607 47.2003 22.7963 46.9991 22.8957 46.8274C22.995 46.6557 23.1517 46.5246 23.3381 46.4569L41.3437 39.9094V37.9688C41.3437 37.745 41.4326 37.5304 41.5909 37.3721C41.7491 37.2139 41.9637 37.125 42.1875 37.125C42.4113 37.125 42.6259 37.2139 42.7841 37.3721C42.9423 37.5304 43.0312 37.745 43.0312 37.9688V40.5C43.0312 40.6734 42.9777 40.8426 42.878 40.9845C42.7784 41.1264 42.6374 41.2342 42.4744 41.2931L23.9119 48.0431C23.8199 48.0765 23.7228 48.0936 23.625 48.0938ZM23.625 22.7813C23.5271 22.7811 23.4301 22.764 23.3381 22.7306L4.77561 15.9806C4.61272 15.9215 4.47199 15.8137 4.37253 15.6718C4.27308 15.5299 4.21973 15.3608 4.21973 15.1875C4.21973 15.0142 4.27308 14.8451 4.37253 14.7032C4.47199 14.5613 4.61272 14.4535 4.77561 14.3944L23.3381 7.64438C23.5235 7.57736 23.7265 7.57736 23.9119 7.64438L42.4744 14.3944C42.6372 14.4535 42.778 14.5613 42.8774 14.7032C42.9769 14.8451 43.0302 15.0142 43.0302 15.1875C43.0302 15.3608 42.9769 15.5299 42.8774 15.6718C42.778 15.8137 42.6372 15.9215 42.4744 15.9806L23.9119 22.7306C23.8199 22.764 23.7228 22.7811 23.625 22.7813ZM7.53467 15.1875L23.625 21.0431L39.7153 15.1875L23.625 9.33188L7.53467 15.1875ZM27.8437 41.8078C27.6454 41.8076 27.4535 41.7375 27.3017 41.6098C27.1499 41.4822 27.0479 41.3051 27.0136 41.1097C26.9794 40.9144 27.0151 40.7132 27.1144 40.5415C27.2138 40.3698 27.3704 40.2386 27.5569 40.1709L30.9319 38.9475C31.1247 38.9168 31.3221 38.954 31.4906 39.0526C31.6591 39.1512 31.7882 39.3052 31.8559 39.4883C31.9236 39.6714 31.9256 39.8723 31.8618 40.0568C31.7979 40.2413 31.672 40.3979 31.5056 40.5L28.1306 41.7234C28.0408 41.7684 27.9436 41.797 27.8437 41.8078ZM27.8437 38.4328C27.6454 38.4326 27.4535 38.3625 27.3017 38.2348C27.1499 38.1072 27.0479 37.9301 27.0136 37.7347C26.9794 37.5394 27.0151 37.3382 27.1144 37.1665C27.2138 36.9948 27.3704 36.8636 27.5569 36.7959L29.2444 36.18C29.4529 36.1112 29.6801 36.1264 29.8777 36.2224C30.0752 36.3184 30.2275 36.4877 30.3022 36.6943C30.3769 36.9008 30.3682 37.1283 30.2778 37.3285C30.1874 37.5287 30.0225 37.6857 29.8181 37.7663L28.1306 38.3822C28.0386 38.4156 27.9416 38.4327 27.8437 38.4328Z" fill="#F7CA00"/>
<path d="M40.9219 37.9688C39.4187 37.9681 37.9403 37.5849 36.626 36.8554C35.3117 36.1258 34.2046 35.0738 33.409 33.7984C32.6134 32.523 32.1554 31.0661 32.0781 29.5648C32.0008 28.0636 32.3068 26.5674 32.9673 25.217C33.6277 23.8666 34.6209 22.7065 35.8534 21.8458C37.0858 20.9852 38.517 20.4522 40.0122 20.2972C41.5074 20.1422 43.0175 20.3702 44.4003 20.9598C45.7831 21.5493 46.9932 22.481 47.9166 23.6672C48.0542 23.844 48.116 24.0682 48.0883 24.2905C48.0606 24.5128 47.9457 24.715 47.7689 24.8527C47.5921 24.9903 47.3679 25.052 47.1456 25.0243C46.9233 24.9967 46.7211 24.8818 46.5834 24.705C45.7425 23.6279 44.6114 22.8134 43.3232 22.3575C42.035 21.9015 40.6433 21.8231 39.312 22.1315C37.9808 22.4398 36.7653 23.1221 35.8087 24.098C34.8521 25.0738 34.1943 26.3026 33.9125 27.6398C33.6308 28.977 33.737 30.3668 34.2185 31.6456C34.7 32.9245 35.5369 34.0392 36.6306 34.8584C37.7243 35.6777 39.0293 36.1674 40.3919 36.27C41.7546 36.3726 43.1182 36.0838 44.3222 35.4375C44.5191 35.3312 44.7502 35.3075 44.9646 35.3716C45.179 35.4357 45.3592 35.5823 45.4655 35.7792C45.5718 35.9761 45.5955 36.2072 45.5314 36.4216C45.4673 36.636 45.3207 36.8162 45.1238 36.9225C43.8309 37.6125 42.3874 37.9719 40.9219 37.9688Z" fill="#F7CA00"/>
<path d="M47.25 25.3125H43.875C43.6512 25.3125 43.4366 25.2236 43.2784 25.0654C43.1201 24.9071 43.0312 24.6925 43.0312 24.4688C43.0312 24.245 43.1201 24.0304 43.2784 23.8721C43.4366 23.7139 43.6512 23.625 43.875 23.625H46.4062V21.0938C46.4062 20.87 46.4951 20.6554 46.6534 20.4971C46.8116 20.3389 47.0262 20.25 47.25 20.25C47.4738 20.25 47.6884 20.3389 47.8466 20.4971C48.0049 20.6554 48.0938 20.87 48.0938 21.0938V24.4688C48.0938 24.6925 48.0049 24.9071 47.8466 25.0654C47.6884 25.2236 47.4738 25.3125 47.25 25.3125Z" fill="#F7CA00"/>
</svg>
